HIERARCHY
ROOT Hips
{
  OFFSET 42.2271 101.075 102.642
  CHANNELS 6 Xposition Yposition Zposition Zrotation Xrotation Yrotation
  JOINT RightUpLeg
  {
    OFFSET -8.9458 -8.66707 0.101652
    CHANNELS 3 Zrotation Xrotation Yrotation
    JOINT RightLeg
    {
      OFFSET 0 -44.4227 1.3727
      CHANNELS 3 Zrotation Xrotation Yrotation
      JOINT RightFoot
      {
        OFFSET 0.253549 -42.0924 -1.46059
        CHANNELS 3 Zrotation Xrotation Yrotation
        JOINT RightToes
        {
          OFFSET 0.04 -4.41509 8.4991
          CHANNELS 3 Zrotation Xrotation Yrotation
          End Site
          {
            OFFSET -0.08 -0.137448 9.77979
          }
        }
      }
    }
  }
  JOINT Spine
  {
    OFFSET 0 11.8905 0
    CHANNELS 3 Zrotation Xrotation Yrotation
    JOINT Spine1
    {
      OFFSET 0 25.6574 0.127663
      CHANNELS 3 Zrotation Xrotation Yrotation
      JOINT HEad
      {
        OFFSET 0 8.73416 0.011341
        CHANNELS 3 Zrotation Xrotation Yrotation
        End Site
        {
          OFFSET -0.29 12.7742 2.51395
        }
      }
      JOINT LeftShoulder1
      {
        OFFSET 8.99 -0.362252 -0.22
        CHANNELS 3 Zrotation Xrotation Yrotation
        JOINT LeftArm
        {
          OFFSET 10.2827 -0.00338 0.322123
          CHANNELS 3 Zrotation Xrotation Yrotation
          JOINT LeftForeArm
          {
            OFFSET 32.7669 0.099144 -1.42434
            CHANNELS 3 Zrotation Xrotation Yrotation
            JOINT LeftHand
            {
              OFFSET 27.5643 0.085362 1.02216
              CHANNELS 3 Zrotation Xrotation Yrotation
              End Site
              {
                OFFSET 16.7443 -0.6 1.50291
              }
            }
          }
        }
      }
      JOINT RightShoulder
      {
        OFFSET -8.99 -0.362252 -0.22
        CHANNELS 3 Zrotation Xrotation Yrotation
        JOINT RightArm
        {
          OFFSET -10.2827 -0.00338 0.322123
          CHANNELS 3 Zrotation Xrotation Yrotation
          JOINT RightForeArm
          {
            OFFSET -32.8971 0.099144 -1.42434
            CHANNELS 3 Zrotation Xrotation Yrotation
            JOINT RightHand
            {
              OFFSET -27.4921 0.085362 1.02216
              CHANNELS 3 Zrotation Xrotation Yrotation
              End Site
              {
                OFFSET -16.6312 -0.6 1.50291
              }
            }
          }
        }
      }
    }
  }
  JOINT LeftUpLeg
  {
    OFFSET 8.9458 -8.66707 0.101652
    CHANNELS 3 Zrotation Xrotation Yrotation
    JOINT LeftLeg
    {
      OFFSET 0 -44.4227 1.3727
      CHANNELS 3 Zrotation Xrotation Yrotation
      JOINT LeftFoot
      {
        OFFSET -0.253549 -42.0924 -1.46059
        CHANNELS 3 Zrotation Xrotation Yrotation
        JOINT LeftToes
        {
          OFFSET -0.04 -4.41509 8.4991
          CHANNELS 3 Zrotation Xrotation Yrotation
          End Site
          {
            OFFSET 0.08 -0.047448 9.77979
          }
        }
      }
    }
  }
}
MOTION
Frames:	12
Frame Time:	0.0166667
39.419 102.715 119.431 3.44578 -0.066189 179.402 5.85539 -12.2367 -0.457981 5.07763 18.2761 -1.59286 0.225104 -7.96216 -0.173063 0.0462048 0.000533964 0.662642 1.1144 1.84981 0.295264 2.00964 -6.28763 0.188649 3.69689 2.55767 -1.25283 3.72721e-017 7.95139e-016 -0 -85.7985 -30.7667 -3.95295 -23.4922 11.2922 2.21537 0.368473 9.90896 -0.00117926 2.20601 0.173635 -1.83259 81.4848 -30.4187 -5.67692 20.9439 14.2034 12.0608 -0.369625 9.91382 0.00119886 0.375423 9.55567 0.146678 0.1753 25.7857 1.4297 -0.548471 -4.64662 0.0270225 4.52555e-011 1.39213e-011 2.09098e-011 
39.6291 102.672 118.605 3.62035 -0.185348 179.547 6.15647 -11.917 -0.521616 5.07685 18.4836 -1.48825 0.156413 -8.68573 -0.176704 -0.242916 0.42008 1.17449 1.17867 1.84981 0.297579 2.07255 -6.35561 0.194488 3.6897 2.46325 -1.42721 -6.4838e-017 -7.95139e-016 -0 -85.7751 -30.2794 -4.29096 -23.6148 11.4661 1.31668 0.368473 9.90896 -0.00117926 2.00085 0.163379 -1.90451 81.7444 -29.9153 -5.33327 21.1581 14.2693 12.3773 -0.369625 9.91382 0.00119886 0.770438 8.58851 0.319769 0.185995 27.7897 1.80332 -0.671858 -3.71803 0.0321363 4.52547e-011 1.3934e-011 2.09104e-011 
39.84 102.612 117.801 3.78972 -0.30888 179.712 6.42631 -11.6476 -0.633587 5.11078 18.7546 -1.36564 0.0941421 -9.4067 -0.180256 -0.44546 0.707282 1.52961 1.26175 1.84981 0.29017 2.11347 -6.39556 0.196915 3.67495 2.34124 -1.58207 3.10601e-017 0 2.48481e-017 -85.7492 -29.8008 -4.63378 -23.739 11.6497 0.367131 0.368473 9.90896 -0.00117926 1.82556 0.156455 -1.94768 82.0068 -29.4208 -4.96053 21.3521 14.3335 12.6879 -0.369625 9.91382 0.00119886 1.17188 7.44456 0.479082 0.194619 30.0099 2.18221 -0.794181 -2.63061 0.0396606 4.52553e-011 1.39276e-011 2.09102e-011 
40.0601 102.504 117.055 3.93463 -0.447816 179.919 6.60333 -11.5181 -0.905043 5.23733 19.2055 -1.14321 0.0216091 -10.1184 -0.18539 -0.360315 0.588506 1.34049 1.38355 1.84328 0.253871 2.07545 -6.36072 0.188449 3.66111 2.12279 -1.65715 2.17421e-017 7.95139e-016 -4.96962e-017 -85.7016 -29.3394 -4.98715 -23.8941 11.8494 -0.673389 0.368473 9.90896 -0.00117926 1.7626 0.161281 -1.89005 82.2706 -28.9548 -4.50871 21.4967 14.3974 12.9986 -0.369625 9.91382 0.00119886 1.59132 5.84663 0.628841 0.197457 32.7856 2.60923 -0.919556 -1.10694 0.0537012 4.52549e-011 1.39245e-011 2.09094e-011 
40.2676 102.368 116.352 4.09086 -0.586514 -179.816 6.74485 -11.4614 -1.1963 5.41905 19.7407 -0.993566 0.0149388 -10.8305 -0.186563 -0.200504 0.356316 1.14223 1.55951 1.84677 0.207295 2.04131 -6.27933 0.17787 3.59468 1.9042 -1.75529 2.54693e-016 0 -9.93923e-017 -85.7051 -28.9067 -5.36551 -24.0125 12.0915 -1.88534 0.368473 9.90896 -0.00117926 1.68412 0.165924 -1.83282 82.5748 -28.4972 -3.99762 21.6033 14.4516 13.2666 -0.369625 9.91382 0.00119886 1.99863 3.9195 0.705645 0.284146 35.9699 2.94396 -1.03239 0.65606 0.0716298 4.52557e-011 1.39245e-011 2.09094e-011 
40.4354 102.212 115.691 4.28814 -0.714494 -179.469 6.88047 -11.4326 -1.38153 5.65617 20.283 -1.16522 0.184232 -11.5301 -0.177045 -0.0546355 0.119401 1.67211 1.83043 1.8796 0.159802 2.08161 -6.1743 0.171829 3.39429 1.80088 -1.98245 1.18028e-016 0 9.93923e-017 -85.819 -28.5166 -5.75759 -24.0286 12.4243 -3.46016 0.368473 9.90896 -0.00117926 1.45819 0.159304 -1.86663 82.9761 -28.0303 -3.43622 21.6707 14.4847 13.4415 -0.369625 9.91382 0.00119886 2.33739 1.67361 0.718829 0.719764 39.5762 2.96639 -1.15931 2.59584 0.0975197 4.52553e-011 1.39276e-011 2.09102e-011 
40.5873 102.035 115.076 4.52539 -0.827232 -179.043 7.02994 -11.4569 -1.5307 5.92255 20.8943 -1.35818 0.412026 -12.2781 -0.161847 -0.0865529 0.155992 1.93602 2.14043 1.92378 0.119983 2.17612 -6.01481 0.16923 3.15026 1.68652 -2.26884 3.72721e-017 0 -3.97569e-016 -86.0652 -28.1694 -6.24597 -23.9427 12.7768 -5.11008 0.368473 9.90896 -0.00117926 1.17959 0.147276 -1.95109 83.4189 -27.5655 -2.80785 21.7087 14.505 13.5516 -0.369625 9.91382 0.00119886 2.64815 -0.825827 0.457636 1.1737 43.4734 2.84635 -1.17719 4.58671 0.115573 4.52565e-011 1.39372e-011 2.09098e-011 
40.7387 101.821 114.528 4.84574 -0.914555 -178.513 7.25558 -11.6007 -1.65078 6.17106 21.7169 -1.21201 0.642779 -13.2443 -0.139733 -0.810651 1.29724 0.60713 2.47842 1.96769 0.0993173 2.35237 -5.7497 0.172267 2.92692 1.44244 -2.57662 0 0 -1.98785e-016 -86.5234 -27.853 -6.98036 -23.7161 13.0882 -6.53182 0.368473 9.90896 -0.00117926 0.908786 0.129713 -2.10323 83.874 -27.0998 -2.06804 21.7261 14.5153 13.5985 -0.369625 9.91382 0.00119886 2.91683 -3.57036 -0.295818 1.41837 47.6421 2.55709 -0.881593 6.57986 0.104003 4.52549e-011 1.39276e-011 2.0909e-011 
40.8871 101.62 114 5.14479 -0.98286 -177.949 7.45978 -11.6958 -1.80485 6.42281 22.4355 -1.14217 0.800531 -14.0898 -0.122756 -1.20698 1.99335 -0.57957 2.75051 2.01148 0.098514 2.53763 -5.46283 0.177713 2.71551 1.16135 -2.91582 8.69683e-017 3.97569e-016 3.97569e-016 -87.074 -27.6115 -7.74496 -23.4465 13.3998 -7.95349 0.368473 9.90896 -0.00117926 0.616629 0.113476 -2.24143 84.3183 -26.6568 -1.30936 21.7238 14.5195 13.613 -0.369625 9.91382 0.00119886 3.058 -6.37701 -1.5266 1.2862 51.7531 2.52237 -0.533398 8.28221 0.0839932 4.52545e-011 1.39181e-011 2.09098e-011 
41.0392 101.486 113.447 5.31256 -1.04978 -177.412 7.54365 -11.575 -2.09287 6.74007 22.7012 -1.64668 0.723334 -14.4309 -0.129622 -0.247284 0.438745 0.384553 2.8249 2.05418 0.128496 2.66094 -5.25777 0.18393 2.52825 0.912932 -3.29398 -1.2424e-017 0 1.19271e-015 -87.6321 -27.5329 -8.33547 -23.1988 13.7432 -9.59101 0.368473 9.90896 -0.00117926 0.267868 0.106623 -2.27505 84.7271 -26.2657 -0.640738 21.7135 14.5271 13.6461 -0.369625 9.91382 0.00119886 2.98399 -9.04981 -3.45288 0.0509464 55.4627 3.49749 -0.423963 9.55075 0.0766055 4.52547e-011 1.39054e-011 2.09096e-011 
41.1832 101.397 112.892 5.40748 -1.07164 -176.911 7.58134 -11.3018 -2.40955 7.00725 22.7546 -2.13662 0.609856 -14.5715 -0.13987 1.20996 -1.76716 1.35796 2.80422 2.0875 0.170106 2.74484 -5.02417 0.188354 2.37132 0.647413 -3.6808 -1.2424e-016 -1.98785e-016 7.95139e-016 -88.1983 -27.4851 -8.87913 -23.0094 14.0704 -11.183 0.368473 9.90896 -0.00117926 -0.0582013 0.105409 -2.2483 85.0953 -25.9139 0.0396741 21.6712 14.5246 13.6386 -0.369625 9.91382 0.00119886 2.67712 -11.5847 -5.63121 -1.79474 58.7604 5.19987 -0.267305 9.88639 0.061079 4.52548e-011 1.39117e-011 2.091e-011 
41.3027 101.354 112.35 5.45699 -0.980972 -176.48 7.619 -10.8441 -2.70019 7.08196 22.7228 -2.00256 0.657567 -14.6704 -0.133831 2.45027 -3.64463 0.335112 2.74543 2.10404 0.212487 2.8108 -4.63463 0.188779 2.22754 0.28603 -4.06977 -1.2424e-017 3.97569e-016 -0 -88.791 -27.363 -9.49297 -22.9461 14.3421 -12.4829 0.368473 9.90896 -0.00117926 -0.27542 0.105431 -2.2205 85.3899 -25.5641 0.847335 21.5776 14.4964 13.5301 -0.369625 9.91382 0.00119886 2.20391 -13.9089 -7.68273 -3.87926 61.5752 7.63098 0.227382 8.31732 0.0119878 4.52549e-011 1.3934e-011 2.09097e-011 
